<svg width="141.732" height="141.732" xmlns="http://www.w3.org/2000/svg">

 <g>
  <title>background</title>
  <rect fill="none" id="canvas_background" height="402" width="582" y="-1" x="-1"/>
 </g>
 <g>
  <title>Layer 1</title>
  <path fill="#757575" stroke="#757575" id="svg_1" d="m51.821,46.986l0,0c0,-0.016 -0.005,-0.029 -0.006,-0.045c-0.003,-0.239 -0.021,-0.479 -0.068,-0.714c-0.026,-0.133 -0.074,-0.257 -0.114,-0.385c-0.035,-0.113 -0.062,-0.229 -0.104,-0.343c-0.062,-0.15 -0.146,-0.297 -0.229,-0.438c-0.043,-0.075 -0.075,-0.155 -0.124,-0.229c-0.286,-0.43 -0.654,-0.8 -1.084,-1.085c-0.08,-0.053 -0.166,-0.088 -0.249,-0.135c-0.14,-0.078 -0.271,-0.16 -0.419,-0.221c-0.119,-0.049 -0.243,-0.076 -0.366,-0.113c-0.118,-0.037 -0.233,-0.082 -0.357,-0.104c-0.251,-0.054 -0.506,-0.076 -0.761,-0.076l-0.002,0c-0.255,0 -0.51,0.022 -0.761,0.076c-0.11,0.021 -0.214,0.062 -0.32,0.096c-0.137,0.039 -0.271,0.07 -0.403,0.125c-0.131,0.054 -0.244,0.128 -0.367,0.19c-0.103,0.059 -0.203,0.103 -0.302,0.162c-0.25,0.166 -0.473,0.366 -0.676,0.584l-0.017,-0.016l-15.402,15.4l0.021,0.021c-0.033,0.03 -0.07,0.052 -0.104,0.083c-1.518,1.518 -1.518,3.979 0,5.496c1.521,1.517 3.979,1.517 5.496,0c0.031,-0.031 0.054,-0.069 0.083,-0.104l0.021,0.021l8.842,-8.842l0,46.559l0.012,0c-0.001,0.041 -0.012,0.079 -0.012,0.12c0,2.146 1.738,3.886 3.886,3.886c2.148,0 3.887,-1.74 3.887,-3.886c0,-0.041 -0.011,-0.079 -0.013,-0.12l0.013,0l0,-55.84l-0.011,0c-0.002,-0.044 0.01,-0.083 0.01,-0.123m42.845,29.839l-20.685,0l20.687,-20.684l-0.002,20.684l0,0zm18.598,3.888c0,-2.141 -1.729,-3.876 -3.868,-3.886l0,-0.002l-6.958,0l0,-29.95l-0.009,0c0.001,-0.039 0.013,-0.078 0.013,-0.118l0,-0.001c0,-0.016 -0.004,-0.025 -0.005,-0.045c-0.002,-0.235 -0.021,-0.478 -0.07,-0.712c-0.024,-0.137 -0.073,-0.263 -0.114,-0.394c-0.034,-0.111 -0.062,-0.227 -0.104,-0.331c-0.062,-0.154 -0.146,-0.295 -0.229,-0.438c-0.043,-0.072 -0.076,-0.153 -0.125,-0.229c-0.286,-0.429 -0.654,-0.798 -1.084,-1.084c-0.078,-0.052 -0.164,-0.087 -0.246,-0.133c-0.142,-0.079 -0.273,-0.161 -0.422,-0.227c-0.118,-0.049 -0.24,-0.075 -0.36,-0.108c-0.122,-0.036 -0.237,-0.083 -0.363,-0.107c-0.244,-0.049 -0.49,-0.073 -0.735,-0.074c-0.012,0 -0.018,-0.003 -0.021,-0.003s-0.013,0.001 -0.019,0.001c-0.249,0.003 -0.498,0.027 -0.743,0.076c-0.112,0.022 -0.214,0.064 -0.322,0.096c-0.135,0.039 -0.271,0.07 -0.403,0.125c-0.129,0.058 -0.245,0.127 -0.366,0.194c-0.104,0.055 -0.203,0.099 -0.302,0.162c-0.251,0.167 -0.475,0.368 -0.68,0.588l-0.007,-0.007l-34.019,34.01l0.031,0.032c-0.58,0.728 -0.875,1.604 -0.854,2.488c-0.001,0.021 -0.009,0.049 -0.009,0.07c0,2.146 1.737,3.891 3.887,3.891c0.041,0 0.079,-0.015 0.12,-0.017l0,0.017l29.793,0l0,18.111l0.012,0c-0.001,0.041 -0.012,0.079 -0.012,0.12c0,2.146 1.737,3.89 3.886,3.89s3.888,-1.74 3.888,-3.89c0,-0.041 -0.012,-0.079 -0.013,-0.12l0.013,0l0,-18.11l6.897,0c0.016,0 0.026,0.004 0.042,0.004c2.14,0 3.88,-1.742 3.88,-3.889m5.757,48.182c0,2.71 -2.155,4.906 -4.812,4.906l-86.684,0c-2.659,0 -4.812,-2.196 -4.812,-4.906l0,-107.937c0,-2.71 2.152,-4.902 4.812,-4.902l0.535,0l0,0.127l0.007,0c0.067,2.896 2.436,5.224 5.348,5.224c2.908,0 5.272,-2.328 5.344,-5.224l0.007,0l0,-0.127l64.204,0l0,0.127l0.008,0c0.067,2.896 2.436,5.224 5.345,5.224c2.911,0 5.274,-2.328 5.347,-5.224l0.007,0l0,-0.127l0.535,0c2.656,0 4.812,2.192 4.812,4.902l-0.003,107.937l0,0zm5.353,4.871l0,-117.714c0,-2.955 -2.396,-5.354 -5.354,-5.354l-5.35,0l0,-5.186l-0.008,0c0.001,-0.058 0.008,-0.106 0.008,-0.161c0,-2.955 -2.396,-5.354 -5.353,-5.354s-5.353,2.396 -5.353,5.354c0,0.055 0.008,0.104 0.009,0.161l-0.004,0l0,5.188l-64.207,0l0,-5.188l-0.009,0c0.002,-0.058 0.009,-0.106 0.009,-0.161c0,-2.955 -2.396,-5.354 -5.35,-5.354c-2.955,0 -5.354,2.396 -5.354,5.354c0,0.055 0.007,0.104 0.008,0.161l-0.007,0l0,5.188l-5.35,0c-2.954,0.001 -5.351,2.397 -5.351,5.353l0,117.714c0,2.956 2.396,5.352 5.354,5.352l96.312,0c2.952,-0.002 5.35,-2.397 5.35,-5.353"/>
 </g>
</svg>