<svg width="128" height="128" xmlns="http://www.w3.org/2000/svg">

 <g>
  <title>background</title>
  <rect fill="none" id="canvas_background" height="402" width="582" y="-1" x="-1"/>
 </g>
 <g>
  <title>Layer 1</title>
  <path fill="#94b800" id="svg_2" d="m40.854,33.522c-1.104,0 -2,-0.896 -2,-2l0,-15.404c0,-1.104 0.896,-2 2,-2s2,0.896 2,2l0,15.404c0,1.105 -0.895,2 -2,2z"/>
  <path fill="#94b800" id="svg_3" d="m52.63,33.522c-1.104,0 -2,-0.896 -2,-2l0,-15.404c0,-1.104 0.896,-2 2,-2s2,0.896 2,2l0,15.404c0,1.105 -0.896,2 -2,2z"/>
  <path fill="#94b800" id="svg_4" d="m64.686,33.522c-1.104,0 -2,-0.896 -2,-2l0,-15.404c0,-1.104 0.896,-2 2,-2s2,0.896 2,2l0,15.404c0,1.105 -0.896,2 -2,2z"/>
  <path fill="#94b800" id="svg_5" d="m81.54,114.004l-57.541,0c-1.104,0 -2,-0.896 -2,-2c0,-1.104 0.896,-2 2,-2l57.541,0c1.104,0 2,0.896 2,2c0,1.104 -0.895,2 -2,2z"/>
  <path fill="#94b800" id="svg_6" d="m88.465,84.111l-6.246,0l0,-4l6.246,0c7.506,0 13.612,-6.108 13.612,-13.616c0,-7.507 -6.106,-13.615 -13.612,-13.615l-6.246,0l0,-4l6.246,0c9.712,0 17.612,7.902 17.612,17.615c0,9.714 -7.9,17.616 -17.612,17.616z"/>
  <path fill="#94b800" id="svg_7" d="m52.77,106.949c-16.967,0 -30.771,-13.805 -30.771,-30.772l0,-37.385l61.541,0l0,37.385c0,16.968 -13.804,30.772 -30.77,30.772zm-26.771,-64.157l0,33.385c0,14.763 12.009,26.772 26.771,26.772s26.77,-12.01 26.77,-26.772l0,-33.385l-53.541,0z"/>
 </g>
</svg>