<svg width="64" height="64" xmlns="http://www.w3.org/2000/svg">

 <title/>
 <g>
  <title>background</title>
  <rect fill="none" id="canvas_background" height="402" width="582" y="-1" x="-1"/>
 </g>
 <g>
  <title>Layer 1</title>
  <path stroke-width="2px" stroke-linejoin="round" stroke="#94b800" fill="none" id="svg_1" d="m44.1,28a4.81,4.81 0 0 1 -0.1,-1a5,5 0 0 1 10,0a4.53,4.53 0 0 1 -0.1,1" class="cls-1"/>
  <path stroke-width="2px" stroke-linejoin="round" stroke="#94b800" fill="none" id="svg_2" d="m2,36l60,0a0,0 0 0 1 0,0l0,0a26,26 0 0 1 -26,26l-8,0a26,26 0 0 1 -26,-26l0,0a0,0 0 0 1 0,0z" class="cls-1"/>
  <path stroke-width="2px" stroke-linejoin="round" stroke="#94b800" fill="none" id="svg_3" d="m40,36a4.94,4.94 0 0 1 -1,-3a5,5 0 0 1 10,0a4.94,4.94 0 0 1 -1,3" class="cls-1"/>
  <path stroke-width="2px" stroke-linejoin="round" stroke="#94b800" fill="none" id="svg_4" d="m50,36a4.94,4.94 0 0 1 -1,-3a5,5 0 1 1 9,3" class="cls-1"/>
  <path stroke-width="2px" stroke-linejoin="round" stroke="#94b800" fill="none" id="svg_5" d="m54,25.65a6.43,6.43 0 0 1 1,-1.27l0,0a6.84,6.84 0 0 1 4.83,-2l1.17,0l0,1.17a6.84,6.84 0 0 1 -2,4.83l0,0a7,7 0 0 1 -1.45,1.1" class="cls-1"/>
  <path stroke-width="2px" stroke-linejoin="round" stroke="#94b800" fill="none" id="svg_6" d="m21,31l-17,-17l0,9.51a20.54,20.54 0 0 0 4.24,12.49" class="cls-1"/>
  <path stroke-width="2px" stroke-linejoin="round" stroke="#94b800" fill="none" id="svg_7" d="m8,18l0,4.93a17.07,17.07 0 0 0 5,12.07l0,0c0.35,0.35 0.71,0.68 1.09,1" class="cls-1"/>
  <path stroke-width="2px" stroke-linejoin="round" stroke="#94b800" fill="none" id="svg_8" d="m36,36a4.94,4.94 0 0 0 3.42,-1.36" class="cls-1"/>
  <path stroke-width="2px" stroke-linejoin="round" stroke="#94b800" fill="none" id="svg_9" d="m40.58,29a5,5 0 0 0 -2.82,-2.67a4.18,4.18 0 0 0 0.24,-1.33a4,4 0 0 0 -3.17,-3.91a3.94,3.94 0 0 0 0.17,-1.09a4,4 0 0 0 -8,0a3.94,3.94 0 0 0 0.17,1.09a4,4 0 0 0 -3.17,3.91a4.18,4.18 0 0 0 0.24,1.33a5,5 0 0 0 1.76,9.67l10,0" class="cls-1"/>
  <path stroke-width="2px" stroke-linejoin="round" stroke="#94b800" fill="none" id="svg_10" d="m56.58,23a5,5 0 0 0 -2.82,-2.67a4.18,4.18 0 0 0 0.24,-1.33a4,4 0 0 0 -3.17,-3.91a3.94,3.94 0 0 0 0.17,-1.09a4,4 0 0 0 -8,0a3.94,3.94 0 0 0 0.17,1.09a4,4 0 0 0 -3.17,3.91a4.18,4.18 0 0 0 0.24,1.33a5,5 0 0 0 -2.82,2.67" class="cls-1"/>
  <line stroke-width="2px" stroke-linejoin="round" stroke="#94b800" fill="none" id="svg_11" y2="23" y1="36" x2="31" x1="31" class="cls-1"/>
  <line stroke-width="2px" stroke-linejoin="round" stroke="#94b800" fill="none" id="svg_12" y2="25" y1="28" x2="34" x1="31" class="cls-1"/>
  <line stroke-width="2px" stroke-linejoin="round" stroke="#94b800" fill="none" id="svg_13" y2="29" y1="32" x2="28" x1="31" class="cls-1"/>
  <line stroke-width="2px" stroke-linejoin="round" stroke="#94b800" fill="none" id="svg_14" y2="40" y1="40" x2="62" x1="2" class="cls-1"/>
  <path stroke-width="2px" stroke-linejoin="round" stroke="#94b800" fill="none" id="svg_15" d="m13,15l0,0a6.84,6.84 0 0 1 -2,-4.83l0,-1.17l1.17,0a6.84,6.84 0 0 1 4.83,2l0,0a6.84,6.84 0 0 1 2,4.83l0,1.17l-1.17,0a6.84,6.84 0 0 1 -4.83,-2z" class="cls-1"/>
  <path stroke-width="2px" stroke-linejoin="round" stroke="#94b800" fill="none" id="svg_16" d="m32,8l0,0a6.84,6.84 0 0 0 2,-4.83l0,-1.17l-1.17,0a6.84,6.84 0 0 0 -4.83,2l0,0a6.84,6.84 0 0 0 -2,4.83l0,1.17l1.17,0a6.84,6.84 0 0 0 4.83,-2z" class="cls-1"/>
  <path stroke-width="2px" stroke-linejoin="round" stroke="#94b800" fill="none" id="svg_17" d="m32,40l0,8a2,2 0 0 0 2,2l0,0a2,2 0 0 0 2,-2l0,-2a2,2 0 0 1 2,-2l0,0a2,2 0 0 1 2,2l0,6a2,2 0 0 0 2,2l0,0a2,2 0 0 0 2,-2l0,-4a2,2 0 0 1 2,-2l0,0a2,2 0 0 1 2,2l0,1a2,2 0 0 0 2,2l0,0a2,2 0 0 0 2,-2l0,-9" class="cls-1"/>
 </g>
</svg>